<svg width="12" height="12" viewBox="0 0 12 12" fill="none" xmlns="http://www.w3.org/2000/svg">
<g clip-path="url(#clip0_409_481)">
<path d="M7.46566 6.16289C7.4247 6.11855 7.40195 6.0604 7.40195 6.00003C7.40195 5.93966 7.4247 5.88151 7.46566 5.83717L11.7514 1.55146C11.8385 1.46679 11.9077 1.36551 11.955 1.25362C12.0022 1.14173 12.0266 1.0215 12.0266 0.90003C12.0266 0.778564 12.0022 0.658331 11.955 0.546441C11.9077 0.434551 11.8385 0.333275 11.7514 0.248602C11.6667 0.161513 11.5654 0.0922862 11.4535 0.0450152C11.3416 -0.00225574 11.2214 -0.0266113 11.1 -0.0266113C10.9785 -0.0266113 10.8583 -0.00225574 10.7464 0.0450152C10.6345 0.0922862 10.5332 0.161513 10.4485 0.248602L6.16281 4.53432C6.11847 4.57528 6.06032 4.59803 5.99995 4.59803C5.93958 4.59803 5.88143 4.57528 5.83709 4.53432L1.55138 0.248602C1.37795 0.0839553 1.14661 -0.00568185 0.907526 -0.000868061C0.668441 0.00394573 0.440894 0.102822 0.274236 0.274316C0.187148 0.358989 0.117921 0.460265 0.07065 0.572155C0.023379 0.684046 -0.000976563 0.804279 -0.000976562 0.925745C-0.000976563 1.04721 0.023379 1.16744 0.07065 1.27933C0.117921 1.39122 0.187148 1.4925 0.274236 1.57717L4.55995 5.86289C4.60091 5.90723 4.62366 5.96538 4.62366 6.02574C4.62366 6.08611 4.60091 6.14426 4.55995 6.1886L0.274236 10.4743C0.187148 10.559 0.117921 10.6603 0.07065 10.7722C0.023379 10.884 -0.000976562 11.0043 -0.000976562 11.1257C-0.000976563 11.2472 0.023379 11.3674 0.07065 11.4793C0.117921 11.5912 0.187148 11.6925 0.274236 11.7772C0.35891 11.8643 0.460185 11.9335 0.572076 11.9808C0.683966 12.028 0.804199 12.0524 0.925665 12.0524C1.04713 12.0524 1.16736 12.028 1.27925 11.9808C1.39114 11.9335 1.49242 11.8643 1.57709 11.7772L5.86281 7.49146C5.90715 7.4505 5.9653 7.42775 6.02567 7.42775C6.08603 7.42775 6.14418 7.4505 6.18852 7.49146L10.4742 11.7772C10.647 11.9499 10.8813 12.047 11.1257 12.047C11.37 12.047 11.6043 11.9499 11.7771 11.7772C11.9499 11.6044 12.0469 11.3701 12.0469 11.1257C12.0469 10.8814 11.9499 10.6471 11.7771 10.4743L7.46566 6.16289Z" fill="#B3B3B3"/>
</g>
<defs>
<clipPath id="clip0_409_481">
<rect width="12" height="12" fill="white"/>
</clipPath>
</defs>
</svg>
